<svg xmlns="http://www.w3.org/2000/svg" data-name="Calque 2" viewBox="0 0 14.6 22.425" x="0px" y="0px"><g><g><path d="m4.14,12.87h-.71v1.75h-1.2v.48h-.79v.78h-.38v-.78H0v2.84h7.57v-2.22h.58v2.22h6.45v-2.73h-.56v-1.12h-1.46v-.63h-1.36v-.58h-.71v-1.27h-.95v-.57h.65v-1.05h.81v-1.07h.33v-.63H3.17v.63h.34v1.07h.77v1.05h.67v.57h-.8v1.27Zm4.71-3.96v1.97h-3.11v-.45h-.74v-.6h-.51v-.92h4.37Zm-2.31,5.88h-.48v-1.09h-1.13v-1.45h1v.61h.6v1.93Zm1.6.31h-.58v-.67h.58v.67Zm0-1.28h-.58v-.67h.58v.67Z"/><rect y="14.05" width="1.06" height=".65"/><rect x="6.41" y="9.45" width="1.74" height=".65"/><path d="m12.13,2.93h-.78v.34H3.25v-.34h.61v-1.27h.48v-.54h.65v-.44h2.42v2.25h3.93v-1.27h-.55v-.64h-.58v-.43h-.68v-.6h-4.59v.47h-.6v.55h-.64v.64h-.51v1.27h-.77v.87h-.74v1.11h-.63v2.7h.63v.68h1.48v-.34h8.18v.34h1.45v-.68h.61v-2.7h-.61v-1.18h-.67v-.8ZM2.43,7h-.67v-1.54h.67v1.54Zm1.01.41v-1.95h1.56v1.95h-1.56Zm9.3-.41h-.61v-1.54h.61v1.54ZM2.43,4.35h.82v-.63h5.68v.88h3.19v.3H2.43v-.55Z"/></g></g><text x="0" y="32.94" fill="#000000" font-size="5px" font-weight="bold" font-family="'Helvetica Neue', Helvetica, Arial-Unicode, Arial, Sans-serif">Created by Robin Lopez</text><text x="0" y="37.94" fill="#000000" font-size="5px" font-weight="bold" font-family="'Helvetica Neue', Helvetica, Arial-Unicode, Arial, Sans-serif">from the Noun Project</text></svg>